<?xml version="1.0" encoding="UTF-8" standalone="no"?>
<svg width="76px" height="72px" viewBox="0 0 76 72" version="1.1" xmlns="http://www.w3.org/2000/svg" xmlns:xlink="http://www.w3.org/1999/xlink" xmlns:sketch="http://www.bohemiancoding.com/sketch/ns">
    <title>ah-frame</title>
    <description>Created with Sketch (http://www.bohemiancoding.com/sketch)</description>
    <defs></defs>
    <g id="Page 1" stroke="none" stroke-width="1" fill="none" fill-rule="evenodd">
        <g id="ah-frame">
            <path d="M52.0417796,0.361780962 L63.9953881,71.638219 C64.0289982,71.8386277 63.8752865,72 63.6522891,72 L57.626759,72 L56.7513666,66.7802501 C56.7179994,66.5812894 56.5128588,66.42 56.2892735,66.42 L18.1149795,66.42 C17.8931397,66.42 17.7403189,66.5810889 17.7737198,66.7802501 L18.6491121,72 L12.4226663,72 C12.1971155,72 11.9917294,71.8380251 11.9582204,71.638219 L0.00461190787,0.361780962 C-0.0289981785,0.161372253 0.124713526,0 0.347710884,0 L51.5773337,0 C51.8028845,0 52.0082706,0.161974854 52.0417796,0.361780962 Z M52.0417796,0.361780962" id="Rectangle 1 copy" fill="#81ACD1" transform="translate(32.000000, 36.000000) scale(-1, 1) translate(-32.000000, -36.000000) "></path>
            <path d="M64.0417796,0.361780962 L75.9953881,71.638219 C76.0289982,71.8386277 75.8752865,72 75.6522891,72 L69.626759,72 L68.7513666,66.7802501 C68.7179994,66.5812894 68.5128588,66.42 68.2892735,66.42 L30.1149795,66.42 C29.8931397,66.42 29.7403189,66.5810889 29.7737198,66.7802501 L30.6491121,72 L24.4226663,72 C24.1971155,72 23.9917294,71.8380251 23.9582204,71.638219 L12.0046119,0.361780962 C11.9710018,0.161372253 12.1247135,0 12.3477109,0 L63.5773337,0 C63.8028845,0 64.0082706,0.161974854 64.0417796,0.361780962 Z M64.0417796,0.361780962" id="Rectangle 1" fill="#B8D6E0"></path>
            <path d="M31.9593735,27 C29.9652018,27 29.8626523,27.9099526 30.0805595,29.7298578 L30.5753903,33.8625592 C30.6616453,34.5829384 31.0439443,35 31.618024,35 L34.2164901,35 C34.8162448,34.9620853 35.0729947,34.5829384 34.9822001,33.8246445 L34.4919089,29.7298578 C34.2740018,27.9099526 33.9535451,27 31.9593735,27 Z M43.9746781,43.816156 C44.0923127,44.5821727 43.8005992,45 43.0888435,45 L39.1030115,45 C38.4268436,45 37.9819077,44.6518106 37.8749671,43.9554318 L37.4097754,40.9261838 C37.3028348,40.229805 36.8934867,39.8816156 36.181731,39.8816156 L33.1211814,39.8816156 C32.4450135,39.8816156 32.1070181,40.229805 32.2139587,40.9261838 L32.6791504,43.9554318 C32.786091,44.6518106 32.4836834,45 31.7719277,45 L27.7860957,45 C27.1099278,45 26.6542978,44.5821727 26.5366631,43.816156 L24.2695224,29.0529248 C23.5957966,24.6657382 23.5910503,20 31.598302,20 C39.6055538,20 41.0338115,24.6657382 41.7075373,29.0529248 L43.9746781,43.816156 Z M48.85475,21 C49.522764,21 49.967617,21.3771429 50.0679855,22.0285714 L51.388623,30.6 C51.4889915,31.2514286 51.9338445,31.6285714 52.6018585,31.6285714 L55.9770873,31.6285714 C56.6802599,31.6285714 56.9737382,31.2514286 56.8733697,30.6 L55.5527322,22.0285714 C55.4523637,21.3771429 55.7810006,21 56.4490147,21 L60.3867815,21 C61.0899542,21 61.494366,21.3428571 61.600017,22.0285714 L64.9808491,43.9714286 C65.0812176,44.6228571 64.7877393,45 64.0845667,45 L60.1467998,45 C59.4787858,45 59.0339328,44.6228571 58.9335643,43.9714286 L58.0989214,38.5542857 C57.9932704,37.8685714 57.5888586,37.5257143 56.8856859,37.5257143 L53.5104572,37.5257143 C52.8424432,37.5257143 52.5085237,37.8685714 52.6141747,38.5542857 L53.4488176,43.9714286 C53.5491861,44.6228571 53.2557078,45 52.5525352,45 L48.6147683,45 C47.9467543,45 47.5019013,44.6228571 47.4015328,43.9714286 L44.0207007,22.0285714 C43.9150497,21.3428571 44.2138105,21 44.9169832,21 L48.85475,21 Z M48.85475,21" id="AH" fill="#14548E"></path>
        </g>
    </g>
</svg>