<?xml version="1.0" encoding="UTF-8" standalone="no"?>
<svg width="22px" height="21px" viewBox="0 0 22 21" version="1.1" xmlns="http://www.w3.org/2000/svg" xmlns:xlink="http://www.w3.org/1999/xlink" xmlns:sketch="http://www.bohemiancoding.com/sketch/ns">
    <title>icon-search</title>
    <description>Created with Sketch (http://www.bohemiancoding.com/sketch)</description>
    <defs></defs>
    <g id="Page 1" stroke="none" stroke-width="1" fill="none" fill-rule="evenodd">
        <path d="M21.5057636,17.7667412 L16.2439165,12.7443014 C17.0373012,11.4999889 17.4940055,10.0390315 17.4940055,8.47573267 C17.4940055,3.93469641 13.3716916,0 8.61389015,0 C3.85692418,0 0,3.68163392 0,8.222936 C0,12.7642381 4.1220355,16.6986687 8.87900147,16.6986687 C10.4610366,16.6986687 11.9422626,16.2898345 13.2160222,15.5795583 L18.5062741,20.6293778 C19.0239652,21.1235407 19.8632987,21.1235407 20.3804329,20.6293778 L21.6926226,19.3773564 C22.2108706,18.8829276 22.0231763,18.2609042 21.5057636,17.7667412 L21.5057636,17.7667412 Z M8.61389015,2.53009326 C11.9080097,2.53009326 14.8431708,5.33159072 14.8431708,8.47573267 C14.8431708,11.6198746 12.1728426,14.1685754 8.87900147,14.1685754 C5.58599582,14.1685754 2.65083475,11.367078 2.65083475,8.222936 C2.65083475,5.07879405 5.32088449,2.53009326 8.61389015,2.53009326 Z M8.61389015,2.53009326" id="Shape copy" fill="#33495D"></path>
    </g>
</svg>